<?xml version="1.0" standalone="no"?>
<!DOCTYPE svg PUBLIC "-//W3C//DTD SVG 20010904//EN"
 "http://www.w3.org/TR/2001/REC-SVG-20010904/DTD/svg10.dtd">
<svg version="1.0" xmlns="http://www.w3.org/2000/svg"
 width="90.000000pt" height="104.000000pt" viewBox="0 0 90.000000 104.000000"
 preserveAspectRatio="xMidYMid meet">

<g transform="translate(0.000000,104.000000) scale(0.100000,-0.100000)"
fill="#000000" stroke="none">
<path d="M49 1025 c-15 -8 -32 -29 -38 -46 -7 -21 -11 -168 -11 -441 0 -436 2
-452 49 -478 12 -6 109 -10 242 -10 217 0 223 -1 246 -22 20 -18 39 -23 97
-26 120 -6 166 33 166 143 0 49 3 57 24 65 51 19 86 93 67 142 -5 14 -37 64
-70 111 l-61 86 0 153 0 153 -93 93 -92 92 -250 0 c-198 -1 -256 -4 -276 -15z
m439 -150 c4 -75 9 -90 37 -103 14 -7 48 -12 75 -12 l50 0 0 -70 c0 -68 -1
-70 -24 -70 -35 0 -64 -30 -150 -154 -60 -87 -76 -117 -76 -145 0 -46 32 -99
65 -107 18 -4 25 -13 25 -30 l0 -24 -185 0 -185 0 0 385 0 385 183 -2 182 -3
3 -50z m242 -444 c38 -55 70 -106 70 -114 0 -18 -21 -27 -61 -27 l-29 0 0 -89
c0 -103 -7 -114 -72 -109 l-43 3 -3 98 -3 97 -38 0 c-72 0 -71 17 10 135 40
58 78 105 85 105 7 0 45 -45 84 -99z"/>
</g>
</svg>
